<?xml version="1.0" encoding="UTF-8"?>
<svg version="1.1" viewBox="0 0 1024 1024" width="1024" height="1024" xmlns="http://www.w3.org/2000/svg">
<path transform="translate(0)" d="m0 0h1024v1024h-1024z" fill="#383A3D"/>
<path transform="translate(511,43)" d="m0 0 11 7 13 11 10 8 14 12 13 12 8 7 12 11 2 1v2l4 2 7 7 8 7 32 30 3 2 5-1 21-11 22-13 8-5h3l-2 21v41l3 15 8 8 7 8 13 13 7 8 11 11 7 8 9 9 7 8h27l22 2 9 3 3 3 2 8v26l-2 21 8 8 7 8 10 10 7 8 9 9 7 8 14 15 7 8 9 10 9 11 10 11 11 14 13 16 8 11 10 14 2 3-1 6-13 18-13 17-11 14-11 13-9 11-12 14-14 15-7 8-11 12-14 15-7 7-7 8-11 11 2 21v27l-3 9-8 4-16 2-36 1-15 16-12 13-7 7-7 8-10 10-7 8-10 10-3 11-1 6v39l1 12v12l-19-9-19-10-15-7-4-1-12 12-8 7-9 9-8 7-17 16-8 7-28 24-11 9-18 14-18 12-5-2-11-7-14-11-11-9-13-11-11-9-14-13-8-7-20-18-15-14-12-11-5-5-9 3-19 9-19 10-9 5h-2l1-18 1-12v-29l-3-19-7-8-12-13-9-9v-2h-2l-7-8-6-6v-2l-4-2-7-8-9-9-6-7-36-1-19-3-5-4-2-5-1-6v-19l2-21v-6l-22-22-7-8-9-9-7-8-15-16-7-8-9-10-9-11-13-15-11-14-14-18-13-18-5-8 2-5 12-17 14-18 13-16 9-11 11-13 11-12 7-8 12-13 28-30 15-16 7-7-1-16-1-12v-19l3-10 3-3 17-3 18-1h22l8-8 7-8 13-13 7-8 10-10 7-8 9-9 7-8 4-16v-33l-2-22v-8l11 6 24 14 21 11 5-1 11-11 8-7 17-16 10-9 16-15 10-9 12-11 11-9 14-12 14-11z" fill="#A2A4A8"/>
<path transform="translate(511,43)" d="m0 0 11 7 13 11 10 8 14 12 13 12 8 7 12 11 2 1v2l4 2 7 7 8 7 32 30 3 2 5-1 21-11 22-13 8-5h3l-2 21v41l3 15 8 8 7 8 13 13 7 8 11 11 7 8 9 9 7 8h27l22 2 9 3 3 3 2 8v26l-2 21 8 8 7 8 10 10 7 8 9 9 7 8 14 15 7 8 9 10 9 11 10 11 11 14 13 16 8 11 10 14 2 3-1 6-13 18-13 17-11 14-11 13-9 11-12 14-14 15-7 8-11 12-14 15-7 7-7 8-11 11 2 21v27l-3 9-8 4-16 2-36 1-15 16-12 13-7 7-7 8-10 10-7 8-10 10-3 11-1 6v39l1 12v12l-19-9-19-10-15-7-4-1-12 12-8 7-9 9-8 7-17 16-8 7-28 24-11 9-18 14-18 12-5-2-11-7-14-11-11-9-13-11-11-9-14-13-8-7-20-18-15-14-12-11-5-5-9 3-19 9-19 10-9 5h-2l1-18 1-12v-29l-3-19-7-8-12-13-9-9v-2h-2l-7-8-6-6v-2l-4-2-7-8-9-9-6-7-36-1-19-3-5-4-2-5-1-6v-19l2-21v-6l-22-22-7-8-9-9-7-8-15-16-7-8-9-10-9-11-13-15-11-14-14-18-13-18-5-8 2-5 12-17 14-18 13-16 9-11 11-13 11-12 7-8 12-13 28-30 15-16 7-7-1-16-1-12v-19l3-10 3-3 17-3 18-1h22l8-8 7-8 13-13 7-8 10-10 7-8 9-9 7-8 4-16v-33l-2-22v-8l11 6 24 14 21 11 5-1 11-11 8-7 17-16 10-9 16-15 10-9 12-11 11-9 14-12 14-11zm-181 186-7 8-11 11-7 8-10 10-7 8-9 9-7 8-31 33-14 14-7 8-17 17-7 8-26 26-7 8-9 9-7 8-13 14-9 11-9 10-22 28-14 19-4 6 2 5 14 19 13 17 13 16 11 13 12 14 12 13 7 8 6 7h2l2 4 8 9 5 4 7 8 16 16 7 8 19 19 7 8 16 16 7 8 8 8 7 8 5 6h2l2 4 12 12 7 8 14 15 12 12 2-3 9-21 9-13 13-17 16-24 8-16 3-12v-7l-2-6-6-10-10-10-17-13-10-7-16-9-12-5-15-3-10-1h-17l-1-9h-2l-2-5-2-8 7-1 24-6 6-1h23l21 5 16 8 16 12 11 9 14 12 10 9 14 12 8 8 8 7 9 9 8 7 18 18 8 7 20 20 7-6 15-14 11-11 8-7 14-14 8-7 9-9 8-7 14-13 11-9 10-9 14-11 13-10 13-8 16-6 10-2h23l17 3 21 6 3 2-2 6-5 13h-19l-19 2-15 5-18 10-14 10-11 9-10 9-7 9-3 5-1 5v9l2 9 11 21 14 20 15 20 6 10 7 15 4 9 7-6 17-17 7-8 8-8 7-8 12-13 7-7 7-8 9-9 7-8 21-21 7-8 22-22 7-8 22-22 7-8 9-10 10-11 9-11 9-10 20-25 14-19 9-13 2-5-11-16-14-18-11-14-14-17-13-15-14-15-7-8-12-12-7-8-29-29-7-8-22-22-7-8-13-13-7-8-11-11-7-8-9-9-7-8-12-12-7-8-14-14-2 2-8 20-6 11-12 16-13 18-12 17-13 18-8 9-15 10-16 9-21 9-15 5 6-25 9-26 8-18 8-16 16-27 15-22 1-2-9 1-14 7-22 22-10 13-8 13-8 18-9 29-8 29-5 6-15 1-6-3-4-5-10-37-9-27-8-16-10-14-8-10-14-14-8-7-11-5-9-1 7 12 10 15 12 19 10 19 10 24 9 28 5 19-18-6-26-12-15-9-10-8-9-10-13-19-26-36-11-16-6-13-5-15z" fill="#F9F9F9"/>
<path transform="translate(130,580)" d="m0 0h762l-2 4-11 13-11 12-10 11-7 8-22 22-7 8-22 22-7 8-21 21-7 8-9 9-7 8-9 9-7 8-12 13-16 17-14 14-3-3-6-15-8-15-14-18-16-23-11-21-2-9v-9l2-6 6-10 10-10 14-11 14-10 12-7 14-6 7-2 19-2h19l5-13 2-7-20-6-7-2-14-2h-23l-16 4-11 5-12 7-13 10-11 9-13 11-14 12-16 15-10 9-8 8-8 7-14 14-8 7-14 14-8 7-5 4-26-26-8-7-18-18-8-7-9-9-8-7-13-12-8-7-14-12-12-10-13-10-11-7-12-6-21-5h-23l-23 5-10 3h-4l2 8 2 5h2l1 9h17l16 2 15 4 19 10 12 8 14 11 12 11 6 8 3 5 1 5v7l-3 12-8 16-16 24-14 18-9 14-8 19-2 3-21-21-7-8-14-15-5-5v-2h-2l-7-8-29-31-13-13-7-8-19-19-7-8-16-16-4-5-12-12v-2h-2l-7-8-14-15-7-8-8-10z" fill="#383A3D"/>
<path transform="translate(306,587)" d="m0 0h23l21 5 16 8 16 12 11 9 14 12 10 9 14 12 8 8 8 7 9 9 8 7 18 18 8 7 20 20 7-6 15-14 11-11 8-7 14-14 8-7 9-9 8-7 14-13 11-9 10-9 14-11 13-10 13-8 16-6 10-2h23l17 3 21 6 4 2-2 7-5 13v1h-20l-19 2-15 5-18 10-14 10-11 9-10 9-6 8-3 5-1 5v9l2 9 11 21 14 20 4 5-2 4-1 3-4 1-5-2h-2v9l2 9v10l-2 3 6 7 5 11 10 23 4 9 3 5 5 13 3 6-1 2-12-14-32-32-7-8-10-12-12-17-6-11v-2l-3 2h-7l1 9 12 17 7 9v2l-7-1-13-4-14-11-7-7-2-1v-2h-2l-7-8-2-3-3-1-2 4-13 3-9-1-2 6 19 19 8 7 13 13 10 8 26 14 23 11-2 4-8 7-7 7-8 7-15 14-8 7-14 12-13 11-16 13-13 10-15 11-5-2-12-9-14-11-17-14-14-12-10-9-8-7-10-9-24-22-7-6v-2l48-24 10-9 8-7 20-20 6-5v-5l-2-3-1-5-13 2-11 3-2-1-5 4-8 8-14 10-12 5-8 1 2-5 13-18 7-10v-2l-10-2-3-2-2 6-9 15-9 12-12 14-31 31-7 8-10 12-1-2 8-16 6-13 3-7 4-9 11-24 4-8-1-3v-25l-6-2-5-5 20-30 8-16 3-12v-7l-2-6-6-10-9-9-17-13-10-7-16-9-12-5-15-3-27-2-1-2v-7h-2l-4-7v-6l26-7z" fill="#DBF5EA"/>
<path transform="translate(330,229)" d="m0 0h2l3 10 4 10 7 13 14 19 13 18 13 19 9 12 9 10 14 10 19 10 24 10 10 3-8-29-9-26-12-26-8-14-16-25-10-15v-1l9 1 14 7 22 22 11 15 10 17 9 25 10 37 3 9 6 5 3 1 15-1 5-6 12-43 7-20 8-17 12-17 12-13 14-14 14-7 9-1-7 11-12 18-13 22-8 16-8 18-11 33-4 18 23-8 16-8 15-8 15-11 10-12 13-19 13-18 9-12 13-18 8-17 5-13 7 6 14 14 7 8 12 12 7 8 9 9 7 8 11 11 7 8 13 13 7 8 22 22 7 8 15 15v1l-315 1-332-1 6-7 8-8 7-8 17-17 7-8 17-17 7-8 8-8 7-8 32-34 7-7 7-8 11-11z" fill="#383A3D"/>
<path transform="translate(510,77)" d="m0 0 4 2 17 13 15 13 14 12 11 10 8 7 16 15 8 7 17 16 12 11-3 3-21 11-24 14-9 7-4 5-8 7-12 13-16 16-7 8-13 14-5 5-15-16-7-8-8-8-7-8-11-11-7-8-14-14-24-14-26-14v-3l32-30 14-13 8-7 11-10 8-7 14-12 13-11 10-8z" fill="#383A3D"/>
<path transform="translate(510,756)" d="m0 0 4 2 37 37 8 7 13 13 10 8 26 14 23 11-2 4-8 7-7 7-8 7-15 14-8 7-14 12-13 11-16 13-13 10-15 11-5-2-12-9-14-11-17-14-14-12-10-9-8-7-10-9-24-22-7-6v-2l48-24 10-9 8-7 20-20 8-7z" fill="#383A3D"/>
<path transform="translate(729,618)" d="m0 0 18 1 19 5 17 7 20 9 5 1 3-2 2 6 11 1 7 1-6 8-25 25-7 8-21 21-7 8-9 9-7 8-9 9-7 8-12 13-16 17-14 14-3-3-6-15-8-15-14-18-16-23-11-21-2-9v-9l2-6 6-10 10-10 14-11 14-10 12-7 14-6 7-2z" fill="#383A3D"/>
<path transform="translate(284,618)" d="m0 0h9l16 2 15 4 19 10 12 8 14 11 12 11 6 8 3 5 1 5v7l-3 12-8 16-16 24-14 18-9 14-8 19-2 3-21-21-7-8-14-15-5-5v-2h-2l-7-8-29-31-13-13-7-8-19-19-7-8-11-11h3l16-2 10-4 25-11 15-6 17-4z" fill="#383A3D"/>
<path transform="translate(651,411)" d="m0 0h31l15 3 12 5 11 8 6 9 5 11 2 12v39l-3 15-6 12-7 8-11 7-15 5-13 2h-21l-19-3-13-5-10-7-7-9-4-8-3-11-1-9v-33l3-16 4-10 6-9 7-6 10-5 14-4z" fill="#383A3D"/>
<path transform="translate(167,414)" d="m0 0h117v29h-79v15l-1 4 8-4 12-3h29l15 4 10 6 8 9 4 11v25l-3 10-5 8-7 7-14 7-17 4-10 1h-21l-21-3-12-4-9-5-5-4-6-10-2-8v-14h45l2 14 2 4 5 3 4 1h12l8-3 3-3 2-10v-9l-2-10-5-5-7-2h-11l-9 3-4 5h-41l2-38 2-30z" fill="#383A3D"/>
<path transform="translate(747,414)" d="m0 0h116v29h-78v18l13-5 6-1h29l12 3 11 6 6 5 5 9 2 5 1 6v18l-3 12-6 10-10 8-11 5-18 4-9 1h-20l-16-2-15-4-13-7-6-7-4-9-1-4v-15h45l2 15 5 5 6 2h12l9-3 2-5 1-3v-20l-3-6-3-3-7-2h-12l-8 3-5 5-39 1-1-1 2-39 2-30z" fill="#383A3D"/>
<path transform="translate(512,411)" d="m0 0h31l20 4 12 5 9 7 6 9 2 6 1 11-2 11-4 8-8 9-14 8-21 8-21 7-10 6-2 2 80 1v31h-132l-1-9 1-16 5-15 7-9 9-7 10-5 39-14 10-6 3-5 1-4v-7l-3-7-4-3-3-1h-15l-6 3-3 4-2 15h-47l1-14 4-11 9-10 14-7 16-4z" fill="#383A3D"/>
<path transform="translate(354,411)" d="m0 0h35l20 3 11 4 10 6 6 8 3 8v15l-4 9-5 6-8 4 3 2 8 5 6 9 2 7v15l-4 12-9 10-8 5-15 5-12 2-12 1h-20l-20-2-18-5-9-5-6-5-6-10-2-8v-13h50l1 5 1 9 4 5 5 2 12 1 10-2 5-5 2-5v-12l-2-6-5-2-3-1-28-2v-24l27-1 8-4 1-2v-11l-3-5-6-3h-18l-6 3-4 11h-48v-7l3-10 4-6 8-7 12-5 15-3z" fill="#383A3D"/>
<path transform="translate(685,166)" d="m0 0 1 2-18 42-11 25-7 11-2 4v11l-2 23 1 8 3 5-13 19-12 16-8 9-15 10-16 9-21 9-13 4h-2l1-10 7-24 8-22 9-20 10-18 13-21 13-19h7l4 3 2-5 11-14 12-13 10-10 7-8 9-10 10-13z" fill="#FAAFD1"/>
<path transform="translate(335,166)" d="m0 0 5 5 11 14 9 10 11 12 12 13 12 15 5 7v2l7-2 2-2 2 2 4 5 11 17 12 19 10 19 10 24 9 28 4 16v3l-10-2-26-11-17-9-14-10-8-8-14-19-7-10 1-10-2-10-2-29 1-6-3-5-5-6-10-23-18-43z" fill="#FA9CC5"/>
<path transform="translate(431,245)" d="m0 0h32l3 1 4-1 8 7 10 9 7 7 7 8 8 9 5-5 15-16 12-13 5-4 4-2h37v3l-19 19-10 13-8 13-8 18-9 29-8 29-6 7-15 1-6-3-5-6-10-37-9-27-8-16-10-14-8-10-9-9v-2l-4-2z" fill="#FA9CC6"/>
<path transform="translate(393,278)" d="m0 0 9 1 16 6 5 3 9 14v2l9-3 4-1 2 4 3 3 8 19 9 28 4 16v3l-10-2-26-11-17-9-9-6-1-3-2-18-1-5v-8l2-4-7-8-8-13-1-6z" fill="#FA83B8"/>
<path transform="translate(623,278)" d="m0 0h5l2 2-1 5-9 14-5 7-4 4 2 3v13l-2 14 1 4-10 7-16 9-21 9-13 4h-2l1-10 7-24 8-22 5-11 9-2 3-1 4 2 8-13 5-5 10-5z" fill="#F983B8"/>
<path transform="translate(412,199)" d="m0 0h7l22 13 21 21 7 8 11 11-1 2-7-7-4-1-3 1-6-1-30-1-12-6-8-1 2 5-3-1-6 2h-2l-10-14-9-11-7-7-3-4v-4l12-3 23-1z" fill="#FAC7DF"/>
<path transform="translate(663,434)" d="m0 0 11 1 6 4 3 5v68l-3 6-6 4-10 1-7-2-5-5-2-5v-66l3-6 6-4z" fill="#A3A4A8"/>
<path transform="translate(603,199)" d="m0 0h8l36 5 3 3-6 7-10 11-12 17-6-2-4-2-8 1-14 7h-39l-4 2 2-4 9-9 7-8 8-7 5-6 13-8z" fill="#FAC8DF"/>
<path transform="translate(533,317)" d="m0 0h6l-1 9-12 43-6 7-15 1-6-3-5-6-10-37-3-11 19 2 7 2 20-4 5-2z" fill="#FA83B8"/>
<path transform="translate(349,201)" d="m0 0 2 2 14 33 4 6 4 4 1 4-1 10 2 24 2 11-1 7-3-1-12-17-13-18-7-11-5-11-3-9 3-8 4-15 5-7h2z" fill="#FADAEA"/>
<path transform="translate(671,201)" d="m0 0 4 3 2 3 6 18 3 10v7l-8 17-13 18-10 13-4 6h-2l-3-4-1-11 2-20v-12l9-14 12-27z" fill="#FADBEA"/>
<path transform="translate(453,713)" d="m0 0 7 6 7 7 7 11-1 8-7 13-7 9-9 10-9 9-14 10-12 5-8 1 2-5 13-18 9-13 9-15 7-14 4-13z" fill="#383A3D"/>
<path transform="translate(567,713)" d="m0 0h2l2 13 4 12 8 16 11 18 21 28v2l-7-1-13-4-14-11-7-7-2-1v-2h-2l-7-8-10-14-5-11v-8l8-11z" fill="#383B3E"/>
<path transform="translate(604,760)" d="m0 0 6 2 27 14 12 7 6 7 5 11 10 23 4 9 3 5 5 13 3 6-1 2-12-14-32-32-7-8-10-12-12-17-7-13z" fill="#383B3E"/>
<path transform="translate(416,760)" d="m0 0 1 3-8 15-12 17-13 15-31 31-7 8-10 12-1-2 8-16 6-13 3-7 4-9 11-24 4-6 14-8 16-8z" fill="#383B3D"/>
<path transform="translate(685,166)" d="m0 0 1 2-18 42-11 25-6 9-14 9-21 11-8 5-2-1 7-14 12-18 10-13 12-13 10-10 7-8 9-10 10-13z" fill="#383B3D"/>
<path transform="translate(335,166)" d="m0 0 5 5 11 14 9 10 11 12 12 13 12 15 13 20 6 11-1 3-18-10-23-13-7-8-10-23-18-43z" fill="#383A3D"/>
<path transform="translate(266,597)" d="m0 0h3l2 7 2 5h2l1 9h8v1l-19 3-15 5-29 13-9 3h-2l-6-12-5-8 1-4 26-8z" fill="#82A394"/>
<path transform="translate(756,598)" d="m0 0 5 1 49 17 13 4-2 7-5 6-7 8-3 1-21-9-16-7-17-5-5-1 6-15z" fill="#82A494"/>
<path transform="translate(611,239)" d="m0 0h7l3 4-12 20-2 5 11-6 5-1 5-3 6 1 2 2v8l-2 9-3 3-3-2-8 1-15 5-7 4-7 11-4 6-6-2-6 2-2-1-1 2 1-5 8-16 15-25z" fill="#FA9CC6"/>
<path transform="translate(616,687)" d="m0 0h1l3 18 4 15 5 12 3 8v7l-4 3h-7l-15-5-7-4v-2h-2l-4-6-1-3v-15l6-9 13-15z" fill="#385849"/>
<path transform="translate(405,687)" d="m0 0 7 6 9 9 8 11 1 2v14l-4 8-5 5-8 4-12 4h-9l-2-3v-8l10-28 4-18z" fill="#375748"/>
<path transform="translate(551,245)" d="m0 0h37v3l-19 19-10 13-4 6-1-2 3-6-7 2-16 2-7 3-2 1-4-3-3-2-3 3-2-1 9-11 11-11 7-8 7-6z" fill="#F9AFD1"/>
<path transform="translate(431,245)" d="m0 0h32l3 1 4-1 8 7 10 9 7 7 7 8 8 9-2 2-10-2-12-3-21-5h-3l-1 2-11-14-10-10v-2l-4-2z" fill="#FAAFD1"/>
<path transform="translate(412,199)" d="m0 0h7l22 13 13 13-1 2-9-8-8 1h-16l-30-2h-6-4l-9-10v-4l12-3 23-1z" fill="#FADAEA"/>
<path transform="translate(300,588)" d="m0 0 4 1 6 12 5 16 1 5-23-3-17-1-1-2v-7h-2l-4-7v-6l26-7z" fill="#AADDC7"/>
<path transform="translate(603,199)" d="m0 0h8l36 5 3 3-6 7-9 10-3-3-5-1-39-1h-5l-4-4 5-5z" fill="#FBDBEB"/>
<path transform="translate(723,589)" d="m0 0 8 1 21 6 4 2-2 7-5 13v1h-20l-17 1-2-3 3-13 6-10z" fill="#AADDC6"/>
<path transform="translate(393,278)" d="m0 0 9 1 16 6 5 3 9 14 9 16-1 3-16-6-15-6-7-7-10-16-1-6z" fill="#383A3D"/>
<path transform="translate(623,278)" d="m0 0h5l2 2-1 5-9 14-5 7-6 4-28 11h-2l2-6 13-22 4-5 12-6z" fill="#383A3D"/>
<path transform="translate(373,246)" d="m0 0 15 8 13 7v2l-5-2-6-2-4 2 1 19 2 5 1 13 2 13v9l-3 3-9-12-5-7 1-10-2-10-2-29z" fill="#FAAFD1"/>
<path transform="translate(228,610)" d="m0 0h2l6 13 3 9-23 10-6 1-6-12-5-8 1-4 26-8z" fill="#58856E"/>
<path transform="translate(361,233)" d="m0 0 3 1 5 8 4 4 1 4-1 10 2 24 2 11-1 7-3-1-12-17-3-4 1-14v-25l2-6z" fill="#FAC8DF"/>
<path transform="translate(825,620)" d="m0 0 20 1 10-1 2 2-25 25h-8l-11-2-2-5 2-4 6-8 4-7z" fill="#375748"/>
<path transform="translate(796,612)" d="m0 0 11 3 16 5-2 7-5 6-7 8-3 1-21-9-2-1 1-4 5-9 4-6z" fill="#58856E"/>
<path transform="translate(657,233)" d="m0 0 2 2 2 8 1 26 3 8-10 13-4 6h-2l-3-4-1-11 2-20v-12l9-14z" fill="#FAC8E0"/>
<path transform="translate(628,286)" d="m0 0 3 1v9l-1 5-1 23-2 5-6 8-7 6-4-2 1-10 1-5v-13l-2-4 3-3h2l2-4 10-15z" fill="#FA9CC5"/>
<path transform="translate(166,620)" d="m0 0 17 1 15-1 7 11 4 8 1 4-2 2-16 2-6-4-6-7-12-12v-2h-2z" fill="#365647"/>
<path transform="translate(629,185)" d="m0 0 17 4 15 3v4l-10 11h-2v-2l-24-3-14-2h-7l4-4z" fill="#F9E9F1"/>
<path transform="translate(391,185)" d="m0 0 6 2 20 11 1 2-12 1-23 1-12 2-1 3-8-8-5-7 32-6z" fill="#FAE9F2"/>
<path transform="translate(203,297)" d="m0 0h29l-6 7-8 8-1 2h-2l-2 4-13 13h-1l-2-14v-18z" fill="#3B3E40"/>
<path transform="translate(822,693)" d="m0 0 2 4 1 11v17l-1 1-9 1h-25l6-7 10-10 7-8z" fill="#383B3D"/>
<path transform="translate(671,201)" d="m0 0 4 3 2 3 6 18 3 10v7l-8 17-3 4h-2l-1-24-3-20-1-3h-2l1-6z" fill="#F9E9F1"/>
<path transform="translate(199,693)" d="m0 0h2l7 8 14 14 7 8 3 4h-24l-10-1v-26z" fill="#383B3E"/>
<path transform="translate(791,297)" d="m0 0h29l5 1v17l-2 15-3-1v-2l-4-2-7-8-11-11-7-8z" fill="#383B3D"/>
<path transform="translate(349,201)" d="m0 0 2 2 3 9h-1l-2 10-4 18-1 13-1 7-3-3-6-13-3-9 3-8 4-15 5-7h2z" fill="#FAE9F2"/>
<path transform="translate(616,687)" d="m0 0h1l3 18 2 10-4 2h-11l-13-1-2 1 2-6 11-13 9-10z" fill="#59866F"/>
<path transform="translate(405,687)" d="m0 0 7 6 9 9 8 11 1 4-2 1-6-1-9-1-12-1-1-4 4-18z" fill="#59856F"/>
<path transform="translate(611,239)" d="m0 0h7l3 4-12 20-3 6h-12l-2 3-2-1 10-16z" fill="#F7AFCF"/>
<path transform="translate(408,240)" d="m0 0 4 2 10 16 10 15-1 2-4-5h-9l-4-1-8-16-5-7 1-3 5-1z" fill="#F8AFD0"/>
</svg>
